<?xml version="1.0" encoding="UTF-8"?>
<svg width="128pt" height="128pt" version="1.1" viewBox="0 0 128 128" xmlns="http://www.w3.org/2000/svg">
 <path d="m84.176 49.781c1.8281 2.6719 2.9219 7.0352 2.9219 10.523 0 19.539-24.934 30.957-39.445 18.094-14.48-12.84-4.3086-37.227 16.211-38.629 8.3398-0.57031 16.148 3.1641 20.316 10.012zm-36.996 23.09c-1.1289-15.547 13.949-28.465 30.895-25.219-12.719-11.262-35-0.41016-33.82 16.82 0.21094 3.1289 1.2539 5.9883 2.9258 8.3984zm-22.648 31.086c11.309 10.023 25.441 14.797 40.637 13.754 29.805-2.0391 51.039-21.68 54.375-50.77-3.4219 2.8984-8.0312 4.7734-12.988 4.1641-3.1953-0.39453-6.1641 1.3516-3.6367 5.0469 7.3164 10.68 4.3008 20.68-5.9453 15.41-3.3438-1.7188-8.4297-3.2148-8.9609 2.0312-0.59375 5.8867-0.56641 9.6289-4.3008 12.113-6.5039 4.3281-8.7852-4.6289-18.176-5.7109-0.039062-0.003906-0.078125-0.011719-0.12109-0.019532-10.055-1.8789-8.4453 8.8945-15.379 8.8945-6.7695 0-4.4258-5.8516-12.73-9.2305-4.4609-1.8164-8.9062 2.2695-12.773 4.3164zm78.43-52.535c-0.26172 2.1914-3.5898 1.8008-3.3281-0.39453l0.71094-5.9961c0.26172-2.1914 3.5898-1.8008 3.3281 0.39453zm-19.949-21.602c1.5703 1.5469-0.77344 3.9297-2.3438 2.3867l-4.5117-4.4453c-1.5703-1.5469 0.77344-3.9297 2.3438-2.3867zm-32.941 2.3555c1.9805 0.97656 0.48828 3.9805-1.4805 3l-7.5938-3.7734c-1.9805-0.98047-0.48828-3.9766 1.4805-3zm-18.645 17.324-8.9336 2.7891c-2.1055 0.65625-1.1094 3.8555 0.99609 3.1953l8.9336-2.7891c2.1094-0.64844 1.1094-3.8516-0.99609-3.1953zm-2.7812 23.469c1.4883-1.6133 3.9453 0.65625 2.4492 2.2656l-5.0312 5.4336c-1.4883 1.6133-3.9453-0.65625-2.4492-2.2656zm17.105 14.254-0.44922 5.4805c-0.17578 2.1953 3.1641 2.4648 3.3398 0.26172l0.44922-5.4805c0.17578-2.1953-3.1719-2.4648-3.3398-0.26172zm75.855-29.5c-0.43359-29.602-27.926-49.457-57.457-47.434-31.078 2.1289-57.754 27.711-57.754 58.656 0 11.855 3.9805 22.926 11.449 31.852 4.0508 4.8359 11.352-8.0703 20.719-4.2539 8.8633 3.6094 7.4648 8.9805 11.477 8.9805 3.8516 0 3.6836-10.871 15.898-8.8516 10.316 1.5352 12.391 8.5938 15.926 6.2461 4.6094-3.0703 0.089844-13.012 6.8047-15.746 6.1992-2.5234 12.926 4.6758 14.574 1.8633 1.3594-2.3164-0.91016-7.8086-3.0898-11-4.0781-5.9531 0.5-11.039 6.8047-10.266 7.8867 0.97656 14.691-6.4648 14.645-10.047z" fill-rule="evenodd"/>
</svg>
