<?xml version="1.0" encoding="UTF-8"?>
<svg width="128pt" height="128pt" version="1.1" viewBox="0 0 128 128" xmlns="http://www.w3.org/2000/svg">
 <g>
  <path d="m86.324 41.676c-9.6367-9.6367-21.156-17.176-33.844-22.141-1.25-0.48047-2.6367-0.42578-3.8438 0.14453-1.2031 0.57031-2.1289 1.6055-2.5547 2.875l-3.8398 11.66c-0.17188 0.625 0.15625 1.2812 0.75391 1.5234 23.09 8.0586 41.234 26.227 49.266 49.328 0.24609 0.60156 0.89844 0.92578 1.5234 0.75391l11.66-3.8398c1.2695-0.42578 2.3047-1.3516 2.875-2.5547 0.57031-1.2109 0.625-2.6016 0.14453-3.8438-4.9531-12.715-12.496-24.262-22.141-33.91z"/>
  <path d="m25.602 108.55 60.086-20.02c0.63672-0.23438 0.97656-0.92578 0.78125-1.5742-7.4414-21.258-24.156-37.977-45.414-45.414-0.64844-0.19531-1.3398 0.14453-1.5742 0.78125l-20.02 60.086c-0.56641 1.7461-0.10547 3.6562 1.1914 4.9531 1.3008 1.2969 3.2109 1.7539 4.9531 1.1914zm40.359-39.09c2.4336 0.046875 4.75 1.0586 6.4297 2.8242 1.6836 1.7617 2.5938 4.1211 2.5312 6.5547-0.050781 1.6484-1.3984 2.9648-3.0508 2.9688h-0.19141c-1.6797-0.054688-3.0039-1.4531-2.9688-3.1367 0.03125-0.80859-0.26953-1.5938-0.82813-2.1758-0.53906-0.58594-1.2852-0.92969-2.0742-0.97656-1.6836-0.039063-3.0195-1.4414-2.9844-3.125 0.12109-1.6445 1.4844-2.9258 3.1406-2.9414zm-6.2695 20.348h-0.003906c-1.7461 1.75-4.3711 2.2695-6.6562 1.3281-2.2812-0.94531-3.7695-3.1758-3.7695-5.6445s1.4883-4.6953 3.7695-5.6406c2.2852-0.94531 4.9102-0.42188 6.6562 1.3281 1.1484 1.1406 1.7969 2.6914 1.7969 4.3086 0 1.6211-0.64453 3.1758-1.7969 4.3164zm-14.672-33.641c2.0898-2.0898 5.2383-2.7188 7.9766-1.5859 2.7344 1.1367 4.5195 3.8047 4.5195 6.7656s-1.7852 5.6289-4.5195 6.7656c-2.7344 1.1289-5.8867 0.50391-7.9766-1.5898-2.8555-2.8594-2.8555-7.4883 0-10.355zm-8.1953 14.234c1.1914-1.1914 3.125-1.1914 4.3164 0 1.1914 1.1914 1.1914 3.1211 0 4.3164-0.57422 0.57031-0.89453 1.3438-0.89453 2.1562 0 0.80859 0.32031 1.5859 0.89453 2.1562 0.57031 0.57422 0.89453 1.3516 0.89453 2.1602s-0.32422 1.5859-0.89453 2.1562c-0.57422 0.57031-1.3555 0.89453-2.1641 0.89453-0.80469 0-1.5781-0.32031-2.1484-0.89453-3.5703-3.5742-3.5703-9.3633 0-12.941zm-5.6055 20.273c1.3945-1.3945 3.4883-1.8086 5.3164-1.0547 1.8203 0.75391 3.0117 2.5352 3.0117 4.5039s-1.1914 3.75-3.0117 4.5039c-1.8242 0.75391-3.9219 0.33984-5.3164-1.0547-0.91406-0.91406-1.4297-2.1562-1.4297-3.4492 0-1.2969 0.51563-2.5352 1.4297-3.4492z"/>
 </g>
</svg>
