<?xml version="1.0" encoding="UTF-8"?>
<svg width="128pt" height="128pt" version="1.1" viewBox="0 0 128 128" xmlns="http://www.w3.org/2000/svg">
 <g>
  <path d="m86.453 29.801c1.2305 12.402-7.8281 23.449-20.23 24.68-12.398 1.2266-23.449-7.832-24.676-20.23-1.2305-12.402 7.8281-23.449 20.23-24.68 12.398-1.2266 23.449 7.832 24.676 20.23"/>
  <path d="m94.957 59.914c-1.8125-1.1055-3.9023-1.6602-6.0234-1.7031-3.0938-0.066407-6.0703 1.2227-8.3594 3.3086-4.5625 4.1602-8.2109 7.043-16.574 7.043s-12.16-2.9688-16.508-7.0117c-1.9961-1.8594-4.5312-3.1367-7.2539-3.3164-2.5156-0.16406-5.0508 0.36719-7.1953 1.6797-6.457 3.9414-19.496 16.078-19.496 49.766 0 1.3281 0.019531 2.6094 0.058594 3.8555 0.082031 2.793 2.3906 5 5.1797 5h35.234l19.223 0.003906h35.969c2.793 0 5.0977-2.2109 5.1797-5 0.035156-1.2461 0.058594-2.5273 0.058594-3.8555 0.003906-33.691-13.039-45.824-19.492-49.77z"/>
 </g>
</svg>
